<mxfile host="Electron" modified="2024-02-21T13:42:13.960Z" agent="Mozilla/5.0 (Windows NT 10.0; Win64; x64) AppleWebKit/537.36 (KHTML, like Gecko) draw.io/22.0.0 Chrome/114.0.5735.289 Electron/25.8.3 Safari/537.36" etag="jYXYy5ghC73MT0Er5v2J" version="22.0.0" type="device">
  <diagram name="Page-1" id="2BmdeuGA4Vgqx7qn_TmH">
    <mxGraphModel dx="1247" dy="727" grid="1" gridSize="10" guides="1" tooltips="1" connect="1" arrows="1" fold="1" page="1" pageScale="1" pageWidth="827" pageHeight="1169" math="0" shadow="0">
      <root>
        <mxCell id="0" />
        <mxCell id="1" parent="0" />
        <mxCell id="FjuAl9cYDFEr33M6InGe-3" value="Create Tree of possiblilities:" style="rounded=0;whiteSpace=wrap;html=1;fillColor=#008a00;fontColor=#ffffff;strokeColor=#005700;fontSize=10;fontStyle=1;align=center;opacity=33;perimeterSpacing=1;strokeWidth=1;verticalAlign=top;" vertex="1" parent="1">
          <mxGeometry x="800" y="400" width="920" height="1160" as="geometry" />
        </mxCell>
        <mxCell id="FjuAl9cYDFEr33M6InGe-20" value="For each number &lt;br&gt;in the contiguous &lt;br&gt;data array" style="rounded=0;whiteSpace=wrap;html=1;fillColor=#6a00ff;fontColor=#ffffff;strokeColor=#3700CC;fontSize=10;fontStyle=1;align=left;opacity=33;perimeterSpacing=1;strokeWidth=1;" vertex="1" parent="1">
          <mxGeometry x="840" y="440" width="840" height="1080" as="geometry" />
        </mxCell>
        <mxCell id="138D5iPo24huTF3OedoR-11" value="&amp;nbsp;For each line:" style="rounded=0;whiteSpace=wrap;html=1;fillColor=#6a00ff;fontColor=#ffffff;strokeColor=#3700CC;fontSize=10;fontStyle=1;align=left;opacity=33;perimeterSpacing=1;strokeWidth=1;" parent="1" vertex="1">
          <mxGeometry x="600" y="120" width="800" height="240" as="geometry" />
        </mxCell>
        <mxCell id="138D5iPo24huTF3OedoR-1" value="Loop" style="rounded=0;whiteSpace=wrap;html=1;fillColor=#6a00ff;fontColor=#ffffff;strokeColor=#3700CC;fontSize=10;fontStyle=1;align=left;opacity=33;perimeterSpacing=1;strokeWidth=1;" parent="1" vertex="1">
          <mxGeometry x="40" y="520" width="80" height="80" as="geometry" />
        </mxCell>
        <mxCell id="138D5iPo24huTF3OedoR-2" value="Class" style="rounded=0;whiteSpace=wrap;html=1;fillColor=#e3c800;fontColor=#FFFFFF;strokeColor=#B09500;fontSize=10;fontStyle=1;align=left;opacity=33;perimeterSpacing=1;strokeWidth=1;" parent="1" vertex="1">
          <mxGeometry x="160" y="520" width="80" height="80" as="geometry" />
        </mxCell>
        <mxCell id="138D5iPo24huTF3OedoR-3" value="Method" style="rounded=0;whiteSpace=wrap;html=1;fillColor=#008a00;fontColor=#ffffff;strokeColor=#005700;fontSize=10;fontStyle=1;align=center;opacity=33;perimeterSpacing=1;strokeWidth=1;verticalAlign=top;" parent="1" vertex="1">
          <mxGeometry x="280" y="520" width="80" height="80" as="geometry" />
        </mxCell>
        <mxCell id="138D5iPo24huTF3OedoR-4" value="Logic" style="rounded=0;whiteSpace=wrap;html=1;fillColor=#0050ef;fontColor=#ffffff;strokeColor=#001DBC;fontSize=15;fontStyle=1" parent="1" vertex="1">
          <mxGeometry x="40" y="400" width="80" height="80" as="geometry" />
        </mxCell>
        <mxCell id="138D5iPo24huTF3OedoR-5" value="Variable" style="rounded=0;whiteSpace=wrap;html=1;fillColor=#647687;fontColor=#ffffff;strokeColor=#314354;fontSize=15;fontStyle=1" parent="1" vertex="1">
          <mxGeometry x="160" y="400" width="80" height="80" as="geometry" />
        </mxCell>
        <mxCell id="138D5iPo24huTF3OedoR-6" value="Note" style="shape=hexagon;perimeter=hexagonPerimeter2;whiteSpace=wrap;html=1;fixedSize=1;fillColor=#e51400;fontColor=#ffffff;strokeColor=#B20000;fontStyle=1;fontSize=15;" parent="1" vertex="1">
          <mxGeometry x="280" y="400" width="80" height="80" as="geometry" />
        </mxCell>
        <mxCell id="138D5iPo24huTF3OedoR-7" style="edgeStyle=orthogonalEdgeStyle;rounded=0;orthogonalLoop=1;jettySize=auto;html=1;exitX=1;exitY=0.5;exitDx=0;exitDy=0;entryX=0;entryY=0.5;entryDx=0;entryDy=0;" parent="1" source="138D5iPo24huTF3OedoR-8" target="138D5iPo24huTF3OedoR-10" edge="1">
          <mxGeometry relative="1" as="geometry" />
        </mxCell>
        <mxCell id="138D5iPo24huTF3OedoR-8" value="Input: Text file" style="rounded=0;whiteSpace=wrap;html=1;fillColor=#0050ef;fontColor=#ffffff;strokeColor=#001DBC;fontSize=15;fontStyle=1" parent="1" vertex="1">
          <mxGeometry x="360" y="200" width="80" height="80" as="geometry" />
        </mxCell>
        <mxCell id="138D5iPo24huTF3OedoR-9" value="" style="edgeStyle=orthogonalEdgeStyle;rounded=0;orthogonalLoop=1;jettySize=auto;html=1;" parent="1" source="138D5iPo24huTF3OedoR-10" edge="1">
          <mxGeometry relative="1" as="geometry">
            <mxPoint x="599" y="240" as="targetPoint" />
          </mxGeometry>
        </mxCell>
        <mxCell id="138D5iPo24huTF3OedoR-10" value="Read file" style="rounded=0;whiteSpace=wrap;html=1;fillColor=#0050ef;fontColor=#ffffff;strokeColor=#001DBC;fontSize=15;fontStyle=1" parent="1" vertex="1">
          <mxGeometry x="480" y="200" width="80" height="80" as="geometry" />
        </mxCell>
        <mxCell id="138D5iPo24huTF3OedoR-15" value="MVP - &lt;br style=&quot;font-size: 15px;&quot;&gt;&lt;ul&gt;&lt;li&gt;File input&lt;/li&gt;&lt;li&gt;&lt;br&gt;&lt;/li&gt;&lt;/ul&gt;" style="text;html=1;strokeColor=none;fillColor=none;align=left;verticalAlign=top;whiteSpace=wrap;rounded=0;fontSize=15;" parent="1" vertex="1">
          <mxGeometry x="20" y="210" width="340" height="190" as="geometry" />
        </mxCell>
        <mxCell id="138D5iPo24huTF3OedoR-29" value="" style="edgeStyle=orthogonalEdgeStyle;rounded=0;orthogonalLoop=1;jettySize=auto;html=1;" parent="1" source="138D5iPo24huTF3OedoR-18" target="138D5iPo24huTF3OedoR-19" edge="1">
          <mxGeometry relative="1" as="geometry" />
        </mxCell>
        <mxCell id="FjuAl9cYDFEr33M6InGe-7" style="edgeStyle=orthogonalEdgeStyle;rounded=0;orthogonalLoop=1;jettySize=auto;html=1;exitX=0.5;exitY=1;exitDx=0;exitDy=0;entryX=0.5;entryY=0;entryDx=0;entryDy=0;" edge="1" parent="1" source="138D5iPo24huTF3OedoR-18" target="FjuAl9cYDFEr33M6InGe-6">
          <mxGeometry relative="1" as="geometry" />
        </mxCell>
        <mxCell id="138D5iPo24huTF3OedoR-18" value="Store data in an array" style="rounded=0;whiteSpace=wrap;html=1;fillColor=#0050ef;fontColor=#ffffff;strokeColor=#001DBC;fontSize=15;fontStyle=1" parent="1" vertex="1">
          <mxGeometry x="680" y="200" width="80" height="80" as="geometry" />
        </mxCell>
        <mxCell id="138D5iPo24huTF3OedoR-30" value="" style="edgeStyle=orthogonalEdgeStyle;rounded=0;orthogonalLoop=1;jettySize=auto;html=1;" parent="1" source="138D5iPo24huTF3OedoR-19" target="138D5iPo24huTF3OedoR-21" edge="1">
          <mxGeometry relative="1" as="geometry" />
        </mxCell>
        <mxCell id="138D5iPo24huTF3OedoR-19" value="Calculate the number of broken springs" style="rounded=0;whiteSpace=wrap;html=1;fillColor=#0050ef;fontColor=#ffffff;strokeColor=#001DBC;fontSize=14;fontStyle=1" parent="1" vertex="1">
          <mxGeometry x="800" y="200" width="80" height="80" as="geometry" />
        </mxCell>
        <mxCell id="138D5iPo24huTF3OedoR-25" value="" style="edgeStyle=orthogonalEdgeStyle;rounded=0;orthogonalLoop=1;jettySize=auto;html=1;" parent="1" source="138D5iPo24huTF3OedoR-20" target="138D5iPo24huTF3OedoR-23" edge="1">
          <mxGeometry relative="1" as="geometry" />
        </mxCell>
        <mxCell id="138D5iPo24huTF3OedoR-20" value="Using a binary counting approach, iterate through each possible distribution of the broken springs within the unknowns" style="rounded=0;whiteSpace=wrap;html=1;fillColor=#0050ef;fontColor=#ffffff;strokeColor=#001DBC;fontSize=8;fontStyle=1" parent="1" vertex="1">
          <mxGeometry x="1040" y="200" width="80" height="80" as="geometry" />
        </mxCell>
        <mxCell id="138D5iPo24huTF3OedoR-31" value="" style="edgeStyle=orthogonalEdgeStyle;rounded=0;orthogonalLoop=1;jettySize=auto;html=1;" parent="1" source="138D5iPo24huTF3OedoR-21" target="138D5iPo24huTF3OedoR-20" edge="1">
          <mxGeometry relative="1" as="geometry" />
        </mxCell>
        <mxCell id="138D5iPo24huTF3OedoR-21" value="Calculate the number of broken springs within the unknowns" style="rounded=0;whiteSpace=wrap;html=1;fillColor=#0050ef;fontColor=#ffffff;strokeColor=#001DBC;fontSize=11;fontStyle=1" parent="1" vertex="1">
          <mxGeometry x="920" y="200" width="80" height="80" as="geometry" />
        </mxCell>
        <mxCell id="138D5iPo24huTF3OedoR-23" value="&amp;nbsp;For each &lt;br&gt;&amp;nbsp;distribution:" style="rounded=0;whiteSpace=wrap;html=1;fillColor=#6a00ff;fontColor=#ffffff;strokeColor=#3700CC;fontSize=10;fontStyle=1;align=left;opacity=33;perimeterSpacing=1;strokeWidth=1;" parent="1" vertex="1">
          <mxGeometry x="1160" y="160" width="200" height="160" as="geometry" />
        </mxCell>
        <mxCell id="138D5iPo24huTF3OedoR-28" style="edgeStyle=orthogonalEdgeStyle;rounded=0;orthogonalLoop=1;jettySize=auto;html=1;exitX=1;exitY=0.5;exitDx=0;exitDy=0;entryX=0;entryY=0.5;entryDx=0;entryDy=0;" parent="1" source="138D5iPo24huTF3OedoR-26" target="138D5iPo24huTF3OedoR-27" edge="1">
          <mxGeometry relative="1" as="geometry" />
        </mxCell>
        <mxCell id="138D5iPo24huTF3OedoR-26" value="Calculate if it matches the contiguous grouping data" style="rounded=0;whiteSpace=wrap;html=1;fillColor=#0050ef;fontColor=#ffffff;strokeColor=#001DBC;fontSize=12;fontStyle=1" parent="1" vertex="1">
          <mxGeometry x="1241" y="200" width="80" height="80" as="geometry" />
        </mxCell>
        <mxCell id="138D5iPo24huTF3OedoR-27" value="Answer is sum of matches" style="rounded=0;whiteSpace=wrap;html=1;fillColor=#0050ef;fontColor=#ffffff;strokeColor=#001DBC;fontSize=15;fontStyle=1" parent="1" vertex="1">
          <mxGeometry x="1440" y="200" width="80" height="80" as="geometry" />
        </mxCell>
        <mxCell id="FjuAl9cYDFEr33M6InGe-1" value="Too inefficient for P2" style="shape=hexagon;perimeter=hexagonPerimeter2;whiteSpace=wrap;html=1;fixedSize=1;fillColor=#e51400;fontColor=#ffffff;strokeColor=#B20000;fontStyle=1;fontSize=15;" vertex="1" parent="1">
          <mxGeometry x="800" y="110" width="720" height="80" as="geometry" />
        </mxCell>
        <mxCell id="FjuAl9cYDFEr33M6InGe-9" value="" style="edgeStyle=orthogonalEdgeStyle;rounded=0;orthogonalLoop=1;jettySize=auto;html=1;entryX=0;entryY=0.5;entryDx=0;entryDy=0;" edge="1" parent="1" source="FjuAl9cYDFEr33M6InGe-6" target="FjuAl9cYDFEr33M6InGe-3">
          <mxGeometry relative="1" as="geometry">
            <mxPoint x="800" y="800" as="targetPoint" />
          </mxGeometry>
        </mxCell>
        <mxCell id="FjuAl9cYDFEr33M6InGe-6" value="Expand data" style="rounded=0;whiteSpace=wrap;html=1;fillColor=#0050ef;fontColor=#ffffff;strokeColor=#001DBC;fontSize=15;fontStyle=1" vertex="1" parent="1">
          <mxGeometry x="680" y="940" width="80" height="80" as="geometry" />
        </mxCell>
        <mxCell id="FjuAl9cYDFEr33M6InGe-14" value="For each &lt;br&gt;character" style="rounded=0;whiteSpace=wrap;html=1;fillColor=#6a00ff;fontColor=#ffffff;strokeColor=#3700CC;fontSize=10;fontStyle=1;align=left;opacity=33;perimeterSpacing=1;strokeWidth=1;" vertex="1" parent="1">
          <mxGeometry x="960.5" y="480" width="679.5" height="1000" as="geometry" />
        </mxCell>
        <mxCell id="FjuAl9cYDFEr33M6InGe-24" style="edgeStyle=orthogonalEdgeStyle;rounded=0;orthogonalLoop=1;jettySize=auto;html=1;exitX=1;exitY=0.5;exitDx=0;exitDy=0;entryX=0;entryY=0.5;entryDx=0;entryDy=0;" edge="1" parent="1" source="FjuAl9cYDFEr33M6InGe-15" target="FjuAl9cYDFEr33M6InGe-18">
          <mxGeometry relative="1" as="geometry" />
        </mxCell>
        <mxCell id="FjuAl9cYDFEr33M6InGe-25" style="edgeStyle=orthogonalEdgeStyle;rounded=0;orthogonalLoop=1;jettySize=auto;html=1;exitX=1;exitY=0.5;exitDx=0;exitDy=0;entryX=0;entryY=0.5;entryDx=0;entryDy=0;" edge="1" parent="1" source="FjuAl9cYDFEr33M6InGe-15" target="FjuAl9cYDFEr33M6InGe-19">
          <mxGeometry relative="1" as="geometry" />
        </mxCell>
        <mxCell id="FjuAl9cYDFEr33M6InGe-15" value="If it&#39;s a working spring" style="rounded=0;whiteSpace=wrap;html=1;fillColor=#0050ef;fontColor=#ffffff;strokeColor=#001DBC;fontSize=15;fontStyle=1" vertex="1" parent="1">
          <mxGeometry x="1160" y="520" width="80" height="80" as="geometry" />
        </mxCell>
        <mxCell id="FjuAl9cYDFEr33M6InGe-46" style="edgeStyle=orthogonalEdgeStyle;rounded=0;orthogonalLoop=1;jettySize=auto;html=1;exitX=1;exitY=0.5;exitDx=0;exitDy=0;entryX=0;entryY=0.5;entryDx=0;entryDy=0;" edge="1" parent="1" source="FjuAl9cYDFEr33M6InGe-16" target="FjuAl9cYDFEr33M6InGe-44">
          <mxGeometry relative="1" as="geometry" />
        </mxCell>
        <mxCell id="FjuAl9cYDFEr33M6InGe-47" style="edgeStyle=orthogonalEdgeStyle;rounded=0;orthogonalLoop=1;jettySize=auto;html=1;exitX=1;exitY=0.5;exitDx=0;exitDy=0;entryX=0;entryY=0.5;entryDx=0;entryDy=0;" edge="1" parent="1" source="FjuAl9cYDFEr33M6InGe-16" target="FjuAl9cYDFEr33M6InGe-45">
          <mxGeometry relative="1" as="geometry" />
        </mxCell>
        <mxCell id="FjuAl9cYDFEr33M6InGe-16" value="If it&#39;s a broken spring" style="rounded=0;whiteSpace=wrap;html=1;fillColor=#0050ef;fontColor=#ffffff;strokeColor=#001DBC;fontSize=15;fontStyle=1" vertex="1" parent="1">
          <mxGeometry x="1160" y="880" width="80" height="80" as="geometry" />
        </mxCell>
        <mxCell id="FjuAl9cYDFEr33M6InGe-17" value="If not, create two branches, replacing this character with both types of spring." style="rounded=0;whiteSpace=wrap;html=1;fillColor=#0050ef;fontColor=#ffffff;strokeColor=#001DBC;fontSize=9;fontStyle=1" vertex="1" parent="1">
          <mxGeometry x="1280.37" y="1360" width="80" height="80" as="geometry" />
        </mxCell>
        <mxCell id="FjuAl9cYDFEr33M6InGe-18" value="If the current contiguous count is 0, move to the next character" style="rounded=0;whiteSpace=wrap;html=1;fillColor=#0050ef;fontColor=#ffffff;strokeColor=#001DBC;fontSize=11;fontStyle=1" vertex="1" parent="1">
          <mxGeometry x="1280" y="520" width="80" height="80" as="geometry" />
        </mxCell>
        <mxCell id="FjuAl9cYDFEr33M6InGe-26" style="edgeStyle=orthogonalEdgeStyle;rounded=0;orthogonalLoop=1;jettySize=auto;html=1;exitX=1;exitY=0.5;exitDx=0;exitDy=0;entryX=0;entryY=0.5;entryDx=0;entryDy=0;" edge="1" parent="1" source="FjuAl9cYDFEr33M6InGe-19" target="FjuAl9cYDFEr33M6InGe-22">
          <mxGeometry relative="1" as="geometry" />
        </mxCell>
        <mxCell id="FjuAl9cYDFEr33M6InGe-27" style="edgeStyle=orthogonalEdgeStyle;rounded=0;orthogonalLoop=1;jettySize=auto;html=1;exitX=1;exitY=0.5;exitDx=0;exitDy=0;entryX=0;entryY=0.5;entryDx=0;entryDy=0;" edge="1" parent="1" source="FjuAl9cYDFEr33M6InGe-19" target="FjuAl9cYDFEr33M6InGe-21">
          <mxGeometry relative="1" as="geometry" />
        </mxCell>
        <mxCell id="FjuAl9cYDFEr33M6InGe-19" value="Else, check to see if the contiguous count matches&amp;nbsp;" style="rounded=0;whiteSpace=wrap;html=1;fillColor=#0050ef;fontColor=#ffffff;strokeColor=#001DBC;fontSize=13;fontStyle=1" vertex="1" parent="1">
          <mxGeometry x="1280" y="640" width="80" height="80" as="geometry" />
        </mxCell>
        <mxCell id="FjuAl9cYDFEr33M6InGe-21" value="If it doesn&#39;t, discard whole branch" style="rounded=0;whiteSpace=wrap;html=1;fillColor=#0050ef;fontColor=#ffffff;strokeColor=#001DBC;fontSize=14;fontStyle=1" vertex="1" parent="1">
          <mxGeometry x="1400" y="760" width="80" height="80" as="geometry" />
        </mxCell>
        <mxCell id="FjuAl9cYDFEr33M6InGe-22" value="If it does, repeat process with the next character as the new beginning of the array and moving onto the next number of the contiguous array" style="rounded=0;whiteSpace=wrap;html=1;fillColor=#0050ef;fontColor=#ffffff;strokeColor=#001DBC;fontSize=8;fontStyle=1" vertex="1" parent="1">
          <mxGeometry x="1400" y="640" width="80" height="80" as="geometry" />
        </mxCell>
        <mxCell id="FjuAl9cYDFEr33M6InGe-28" value="Before moving on to the next character, check if this is the last character. If it is, and we&#39;ve ticked off every contig, instead add one to the rolling sum of possibilities" style="rounded=0;whiteSpace=wrap;html=1;fillColor=#0050ef;fontColor=#ffffff;strokeColor=#001DBC;fontSize=7;fontStyle=1" vertex="1" parent="1">
          <mxGeometry x="1520" y="940" width="80" height="80" as="geometry" />
        </mxCell>
        <mxCell id="FjuAl9cYDFEr33M6InGe-34" style="edgeStyle=orthogonalEdgeStyle;rounded=0;orthogonalLoop=1;jettySize=auto;html=1;exitX=1;exitY=0.5;exitDx=0;exitDy=0;entryX=0;entryY=0.5;entryDx=0;entryDy=0;" edge="1" parent="1" source="FjuAl9cYDFEr33M6InGe-33" target="FjuAl9cYDFEr33M6InGe-15">
          <mxGeometry relative="1" as="geometry" />
        </mxCell>
        <mxCell id="FjuAl9cYDFEr33M6InGe-35" style="edgeStyle=orthogonalEdgeStyle;rounded=0;orthogonalLoop=1;jettySize=auto;html=1;exitX=1;exitY=0.5;exitDx=0;exitDy=0;entryX=0;entryY=0.5;entryDx=0;entryDy=0;" edge="1" parent="1" source="FjuAl9cYDFEr33M6InGe-33" target="FjuAl9cYDFEr33M6InGe-16">
          <mxGeometry relative="1" as="geometry" />
        </mxCell>
        <mxCell id="FjuAl9cYDFEr33M6InGe-39" style="edgeStyle=orthogonalEdgeStyle;rounded=0;orthogonalLoop=1;jettySize=auto;html=1;exitX=1;exitY=0.5;exitDx=0;exitDy=0;entryX=0;entryY=0.5;entryDx=0;entryDy=0;" edge="1" parent="1" source="FjuAl9cYDFEr33M6InGe-33" target="FjuAl9cYDFEr33M6InGe-38">
          <mxGeometry relative="1" as="geometry" />
        </mxCell>
        <mxCell id="FjuAl9cYDFEr33M6InGe-33" value="Check the character" style="rounded=0;whiteSpace=wrap;html=1;fillColor=#0050ef;fontColor=#ffffff;strokeColor=#001DBC;fontSize=15;fontStyle=1" vertex="1" parent="1">
          <mxGeometry x="1040" y="940" width="80" height="80" as="geometry" />
        </mxCell>
        <mxCell id="FjuAl9cYDFEr33M6InGe-37" value="If there are as many unacounted broken springs as total remaining unknown springs, replace the character with a broken spring" style="rounded=0;whiteSpace=wrap;html=1;fillColor=#0050ef;fontColor=#ffffff;strokeColor=#001DBC;fontSize=8;fontStyle=1" vertex="1" parent="1">
          <mxGeometry x="1280.37" y="1120" width="80" height="80" as="geometry" />
        </mxCell>
        <mxCell id="FjuAl9cYDFEr33M6InGe-40" style="edgeStyle=orthogonalEdgeStyle;rounded=0;orthogonalLoop=1;jettySize=auto;html=1;exitX=1;exitY=0.5;exitDx=0;exitDy=0;entryX=0;entryY=0.5;entryDx=0;entryDy=0;" edge="1" parent="1" source="FjuAl9cYDFEr33M6InGe-38" target="FjuAl9cYDFEr33M6InGe-37">
          <mxGeometry relative="1" as="geometry" />
        </mxCell>
        <mxCell id="FjuAl9cYDFEr33M6InGe-41" style="edgeStyle=orthogonalEdgeStyle;rounded=0;orthogonalLoop=1;jettySize=auto;html=1;exitX=1;exitY=0.5;exitDx=0;exitDy=0;entryX=0;entryY=0.5;entryDx=0;entryDy=0;" edge="1" parent="1" source="FjuAl9cYDFEr33M6InGe-38" target="FjuAl9cYDFEr33M6InGe-17">
          <mxGeometry relative="1" as="geometry" />
        </mxCell>
        <mxCell id="FjuAl9cYDFEr33M6InGe-43" style="edgeStyle=orthogonalEdgeStyle;rounded=0;orthogonalLoop=1;jettySize=auto;html=1;exitX=1;exitY=0.5;exitDx=0;exitDy=0;entryX=0;entryY=0.5;entryDx=0;entryDy=0;" edge="1" parent="1" source="FjuAl9cYDFEr33M6InGe-38" target="FjuAl9cYDFEr33M6InGe-42">
          <mxGeometry relative="1" as="geometry" />
        </mxCell>
        <mxCell id="FjuAl9cYDFEr33M6InGe-38" value="If it&#39;s an unknown spring" style="rounded=0;whiteSpace=wrap;html=1;fillColor=#0050ef;fontColor=#ffffff;strokeColor=#001DBC;fontSize=15;fontStyle=1" vertex="1" parent="1">
          <mxGeometry x="1160" y="1120" width="80" height="80" as="geometry" />
        </mxCell>
        <mxCell id="FjuAl9cYDFEr33M6InGe-42" value="If there are 0 unaccounted for springs, replace the character with a working spring" style="rounded=0;whiteSpace=wrap;html=1;fillColor=#0050ef;fontColor=#ffffff;strokeColor=#001DBC;fontSize=10;fontStyle=1" vertex="1" parent="1">
          <mxGeometry x="1280.37" y="1240" width="80" height="80" as="geometry" />
        </mxCell>
        <mxCell id="FjuAl9cYDFEr33M6InGe-44" value="If it&#39;s the first contiguous broken spring and there aren&#39;t any remaining contigs, discard the whole branch" style="rounded=0;whiteSpace=wrap;html=1;fillColor=#0050ef;fontColor=#ffffff;strokeColor=#001DBC;fontSize=9;fontStyle=1" vertex="1" parent="1">
          <mxGeometry x="1280" y="880" width="80" height="80" as="geometry" />
        </mxCell>
        <mxCell id="FjuAl9cYDFEr33M6InGe-45" value="If it&#39;s a broken spring, increment the current contiguous count then move on to the next character" style="rounded=0;whiteSpace=wrap;html=1;fillColor=#0050ef;fontColor=#ffffff;strokeColor=#001DBC;fontSize=9;fontStyle=1" vertex="1" parent="1">
          <mxGeometry x="1280" y="1010" width="80" height="80" as="geometry" />
        </mxCell>
      </root>
    </mxGraphModel>
  </diagram>
</mxfile>
